HIERARCHY
ROOT pelvis
{
	OFFSET 0.000000 0.683133 -0.000000
	CHANNELS 6 Xposition Yposition Zposition Xrotation Yrotation Zrotation
	JOINT spine
	{
		OFFSET 0.000000 0.000000 0.000000
		CHANNELS 6 Xposition Yposition Zposition Xrotation Yrotation Zrotation
		JOINT spine.001
		{
			OFFSET 0.000000 0.247335 0.012962
			CHANNELS 3 Xrotation Yrotation Zrotation
			JOINT neck
			{
				OFFSET 0.000000 0.245828 -0.030184
				CHANNELS 6 Xposition Yposition Zposition Xrotation Yrotation Zrotation
				JOINT face
				{
					OFFSET 0.000000 0.180348 -0.003148
					CHANNELS 6 Xposition Yposition Zposition Xrotation Yrotation Zrotation
					End Site
					{
						OFFSET 0.000000 -0.007062 0.030678
					}
				}
			}
			JOINT shoulder.L
			{
				OFFSET 0.000000 0.245828 -0.030184
				CHANNELS 6 Xposition Yposition Zposition Yrotation Xrotation Zrotation
				JOINT upper_arm.L
				{
					OFFSET 0.147288 0.000000 0.000000
					CHANNELS 6 Xposition Yposition Zposition Xrotation Yrotation Zrotation
					JOINT forearm.L
					{
						OFFSET 0.252364 0.000881 -0.000106
						CHANNELS 6 Xposition Yposition Zposition Xrotation Yrotation Zrotation
						End Site
						{
							OFFSET 0.224376 -0.001214 0.003819
						}
					}
				}
			}
			JOINT shoulder.R
			{
				OFFSET 0.000000 0.245828 -0.030184
				CHANNELS 6 Xposition Yposition Zposition Yrotation Xrotation Zrotation
				JOINT upper_arm.R
				{
					OFFSET -0.147288 0.000000 0.000000
					CHANNELS 6 Xposition Yposition Zposition Xrotation Yrotation Zrotation
					JOINT forearm.R
					{
						OFFSET -0.227653 0.000881 -0.000106
						CHANNELS 6 Xposition Yposition Zposition Xrotation Yrotation Zrotation
						End Site
						{
							OFFSET -0.219244 -0.001213 0.003729
						}
					}
				}
			}
		}
	}
	JOINT pelvis.L
	{
		OFFSET 0.000000 0.000000 0.000000
		CHANNELS 6 Xposition Yposition Zposition Yrotation Xrotation Zrotation
		End Site
		{
			OFFSET 0.101599 0.000000 0.000000
		}
	}
	JOINT pelvis.R
	{
		OFFSET 0.000000 0.000000 0.000000
		CHANNELS 6 Xposition Yposition Zposition Yrotation Xrotation Zrotation
		End Site
		{
			OFFSET -0.101599 0.000000 0.000000
		}
	}
	JOINT thigh.L
	{
		OFFSET 0.101599 0.000000 0.000000
		CHANNELS 6 Xposition Yposition Zposition Xrotation Yrotation Zrotation
		JOINT shin.L
		{
			OFFSET 0.017982 -0.343108 0.000000
			CHANNELS 6 Xposition Yposition Zposition Xrotation Yrotation Zrotation
			JOINT foot.L
			{
				OFFSET 0.014458 -0.275882 0.000000
				CHANNELS 6 Xposition Yposition Zposition Xrotation Yrotation Zrotation
				End Site
				{
					OFFSET 0.013897 -0.059499 0.141691
				}
			}
		}
	}
	JOINT thigh.R
	{
		OFFSET -0.101599 0.000000 0.000000
		CHANNELS 6 Xposition Yposition Zposition Xrotation Yrotation Zrotation
		JOINT shin.R
		{
			OFFSET -0.017912 -0.341775 0.000000
			CHANNELS 6 Xposition Yposition Zposition Xrotation Yrotation Zrotation
			JOINT foot.R
			{
				OFFSET -0.014678 -0.280077 0.000000
				CHANNELS 6 Xposition Yposition Zposition Xrotation Yrotation Zrotation
				End Site
				{
					OFFSET -0.014620 -0.062597 0.149070
				}
			}
		}
	}
}
MOTION
Frames: 4
Frame Time: 0.041667
0.009106 -0.015992 0.032583 -0.000000 -4.688893 0.000000 0.000000 0.000000 0.000000 -5.198985 -0.088317 0.900749 10.020462 4.367545 -0.537329 0.000000 0.245828 -0.030184 -3.789391 13.576523 0.647335 -0.000000 0.180348 -0.003148 8.697758 0.000001 0.000000 -0.000000 0.245828 -0.030184 0.091782 -0.000598 0.747837 0.147288 0.000000 -0.000000 -53.173941 -50.902955 -93.240176 0.252364 0.000881 -0.000106 -56.415129 -48.572556 -100.952129 -0.000000 0.245828 -0.030184 0.085265 -0.000513 0.694506 -0.147288 0.000000 0.000000 -33.108703 35.812287 85.594408 -0.227653 0.000881 -0.000106 -41.511639 47.261719 82.975645 0.000000 0.000000 0.000000 -0.000007 0.000000 0.213109 0.000000 0.000000 0.000000 -0.000000 0.000000 0.213109 0.101599 0.000378 0.000000 7.142919 -0.024985 -6.400264 0.017982 -0.343108 0.000000 1.224634 0.078750 1.358091 0.014458 -0.275882 0.000000 -12.322057 8.006639 5.659770 -0.101599 -0.000378 -0.000000 5.418768 -0.159202 2.636913 -0.017912 -0.341775 0.000000 4.228274 -0.172791 1.322000 -0.014678 -0.280077 0.000000 -12.153219 -5.905063 -4.482984 
0.009838 -0.016134 0.032012 -0.000000 -4.508261 0.000000 0.000000 -0.000000 0.000000 -5.139994 -0.081781 0.838585 10.019566 4.268898 -0.525137 0.000000 0.245828 -0.030184 -3.899082 13.681321 0.762912 -0.000000 0.180348 -0.003148 8.842280 -0.000002 0.000000 -0.000000 0.245829 -0.030184 0.101401 -0.000732 0.825775 0.147288 0.000000 0.000000 -53.307916 -50.891579 -93.421709 0.252364 0.000881 -0.000106 -56.554216 -48.550849 -101.145225 -0.000000 0.245829 -0.030184 0.094830 -0.000641 0.772495 -0.147288 -0.000000 0.000000 -33.802391 36.373322 85.900871 -0.227653 0.000881 -0.000106 -41.753595 47.386452 83.161037 0.000000 0.000000 0.000000 -0.000006 0.000000 0.138386 0.000000 0.000000 0.000000 0.000000 -0.000000 0.138353 0.101599 0.000245 -0.000000 7.178358 -0.030202 -6.481538 0.017982 -0.343108 0.000000 0.993093 0.063893 1.362075 0.014458 -0.275882 0.000000 -12.166504 8.108438 5.684280 -0.101599 -0.000245 -0.000000 5.446211 -0.162362 2.587462 -0.017912 -0.341775 0.000000 4.363410 -0.175941 1.384274 -0.014678 -0.280077 0.000000 -12.696023 -5.930185 -4.591856 
0.010420 -0.016361 0.031716 -0.000000 -4.379720 0.000000 0.000000 0.000000 0.000000 -5.087442 -0.075602 0.778908 10.018481 4.151789 -0.510688 0.000000 0.245829 -0.030184 -4.024949 13.821823 0.810747 0.000000 0.180348 -0.003148 8.951577 0.000000 0.000000 0.000000 0.245828 -0.030184 0.111347 -0.000885 0.906889 0.147288 0.000000 0.000000 -53.346219 -50.864217 -93.504600 0.252364 0.000881 -0.000106 -56.699801 -48.532438 -101.341033 0.000000 0.245828 -0.030184 0.104760 -0.000784 0.853565 -0.147288 0.000000 -0.000000 -34.423867 36.799195 86.294495 -0.227653 0.000881 -0.000106 -42.036177 47.544223 83.358975 -0.000000 0.000000 0.000000 0.000015 -0.000000 0.085916 -0.000000 0.000000 0.000000 0.000000 -0.000000 0.085916 0.101599 0.000152 -0.000000 7.247778 -0.034105 -6.538434 0.017982 -0.343108 0.000000 0.763843 0.048919 1.328691 0.014458 -0.275882 0.000000 -12.012981 8.199717 5.703214 -0.101599 -0.000153 -0.000000 5.484386 -0.165504 2.545673 -0.017912 -0.341775 0.000000 4.532183 -0.180150 1.449874 -0.014678 -0.280077 0.000000 -13.302421 -5.934736 -4.701323 
0.010983 -0.016555 0.031473 -0.000000 -4.289581 0.000000 0.000000 0.000000 0.000000 -5.046419 -0.069918 0.723046 10.017627 4.048544 -0.497930 0.000000 0.245828 -0.030184 -4.113019 13.860163 0.809545 -0.000000 0.180348 -0.003148 8.981902 -0.000001 -0.000003 -0.000000 0.245828 -0.030184 0.121929 -0.001052 0.992784 0.147288 0.000000 -0.000000 -53.396575 -50.851612 -93.583502 0.252364 0.000881 -0.000106 -56.871550 -48.572631 -101.486967 -0.000000 0.245828 -0.030184 0.115341 -0.000944 0.939412 -0.147288 0.000000 -0.000000 -34.946465 37.160587 86.612188 -0.227653 0.000881 -0.000106 -42.352873 47.702355 83.604883 0.000000 0.000000 0.000000 0.000081 -0.000000 0.063193 0.000000 0.000000 0.000000 0.000000 0.000000 0.063193 0.101599 0.000112 -0.000000 7.288242 -0.037195 -6.583945 0.017982 -0.343108 0.000000 0.621065 0.039473 1.272556 0.014458 -0.275882 0.000000 -11.899141 8.243827 5.704323 -0.101599 -0.000112 0.000000 5.522036 -0.168037 2.516782 -0.017912 -0.341775 0.000000 4.571121 -0.181808 1.447236 -0.014678 -0.280077 -0.000000 -13.682205 -5.950196 -4.777331 
